<svg id="Layer_1" data-name="Layer 1" xmlns="http://www.w3.org/2000/svg" xmlns:xlink="http://www.w3.org/1999/xlink" viewBox="0 0 399.09 383.12"><defs><style>.cls-1{fill:url(#linear-gradient);}.cls-2{fill:url(#linear-gradient-2);}.cls-3{fill:#0d78d1;}.cls-10,.cls-11,.cls-12,.cls-13,.cls-14,.cls-15,.cls-16,.cls-17,.cls-18,.cls-19,.cls-3,.cls-4,.cls-5,.cls-6,.cls-7,.cls-8,.cls-9{fill-rule:evenodd;}.cls-4{fill:#3838a8;}.cls-5{fill:#03a8f5;}.cls-6{fill:#0a5ebd;}.cls-7{fill:#693bb8;}.cls-8{fill:#9c29b0;}.cls-9{fill:#0acfe0;}.cls-10{fill:#26a8c7;}.cls-11{fill:#1fbf91;}.cls-12{fill:#99cc30;}.cls-13{fill:#f90;}.cls-14{fill:#4db04f;}.cls-15{fill:#ffc208;}.cls-16{fill:#ff7d1a;}.cls-17{fill:#b81c57;}.cls-18{fill:#2470f0;}.cls-19{fill:#0d548f;}</style><linearGradient id="linear-gradient" x1="225.55" y1="-93.78" x2="254.34" y2="-119.12" gradientTransform="matrix(0.98, 0.18, 0.18, -0.98, 83.04, 169.92)" gradientUnits="userSpaceOnUse"><stop offset="0.4" stop-color="#dec851"/><stop offset="0.72" stop-color="#e0ce67"/><stop offset="0.93" stop-color="#e2d378"/></linearGradient><linearGradient id="linear-gradient-2" x1="204.63" y1="-125.7" x2="125.16" y2="-13.99" gradientTransform="matrix(0.98, 0.18, 0.18, -0.98, 83.04, 169.92)" gradientUnits="userSpaceOnUse"><stop offset="0.08" stop-color="#fbf6b1"/><stop offset="0.4" stop-color="#f7eb94"/><stop offset="0.42" stop-color="#f7eb93"/><stop offset="0.9" stop-color="#f4e37f"/></linearGradient></defs><title>sticky-note</title><g id="notes"><path class="cls-1" d="M347,285.48c5-1.43,9.22-.63,8.72.17-3.39,5.48-29.06,26.78-40.41,37.29-13.55,12.53-41.81,38.1-48.8,45-1.6,1.6-9.67,5.61-8.11-.59,4-16,23.21-55.62,23.21-55.62S329.08,290.62,347,285.48Z"/><path class="cls-2" d="M31.51,0,399.09,32.92,386.72,170.16c-1.23,14.47-6.44,68.65-16.58,92S343,308.23,285.46,314.73c0,0-.89,48-29.11,59.78-28,11.69-42.84,9.76-101.66,4.29S0,363.8,0,363.8Z"/></g><g id="bckgrnd"><polygon class="cls-3" points="106.6 212.07 128.66 227.53 150.72 242.98 153.07 216.15 155.43 189.32 131.01 200.69 106.6 212.07"/><polygon class="cls-4" points="101.89 265.74 126.31 254.36 150.72 242.98 148.37 269.81 146.01 296.64 123.96 281.19 101.89 265.74"/><polygon class="cls-5" points="155.43 189.32 133.36 173.86 111.3 158.41 108.95 185.24 106.6 212.07 131.01 200.69 155.43 189.32"/><polygon class="cls-6" points="150.72 242.98 128.66 227.53 106.6 212.07 104.25 238.9 101.89 265.74 126.31 254.36 150.72 242.98"/><polygon class="cls-7" points="194.84 273.88 170.43 285.26 146.02 296.64 148.37 269.81 150.72 242.98 172.78 258.43 194.84 273.88"/><polygon class="cls-8" points="146.02 296.64 168.08 312.09 190.14 327.55 192.49 300.72 194.84 273.88 170.43 285.26 146.02 296.64"/><polygon class="cls-9" points="204.25 166.56 228.67 155.18 253.08 143.8 250.73 170.63 248.37 197.47 226.31 182.01 204.25 166.56"/><polygon class="cls-10" points="253.08 143.8 228.66 155.18 204.25 166.56 206.61 139.73 208.96 112.9 231.02 128.35 253.08 143.8"/><polygon class="cls-11" points="297.2 174.71 275.14 159.26 253.08 143.8 250.73 170.63 248.38 197.47 272.79 186.09 297.2 174.71"/><polygon class="cls-12" points="292.49 228.37 268.08 239.75 243.67 251.13 246.02 224.3 248.38 197.47 270.43 212.92 292.49 228.37"/><polygon class="cls-13" points="287.79 282.04 265.73 266.58 243.67 251.13 241.32 277.96 238.96 304.79 263.38 293.41 287.79 282.04"/><polygon class="cls-14" points="248.38 197.47 272.79 186.09 297.2 174.71 294.85 201.54 292.49 228.37 270.43 212.92 248.38 197.47"/><polygon class="cls-15" points="243.67 251.13 268.08 239.75 292.49 228.37 290.14 255.2 287.79 282.04 265.73 266.58 243.67 251.13"/><polygon class="cls-16" points="194.84 273.88 216.9 289.34 238.96 304.79 241.32 277.96 243.67 251.13 219.26 262.51 194.84 273.88"/><polygon class="cls-17" points="238.96 304.79 214.55 316.17 190.14 327.55 192.49 300.72 194.84 273.88 216.9 289.34 238.96 304.79"/><polygon class="cls-18" points="111.3 158.41 135.72 147.03 160.13 135.65 157.78 162.49 155.43 189.32 133.37 173.86 111.3 158.41"/><polygon class="cls-3" points="160.13 135.65 138.07 120.2 116.01 104.75 113.66 131.58 111.3 158.41 135.72 147.03 160.13 135.65"/><polygon class="cls-6" points="116.01 104.75 138.07 120.2 160.13 135.65 162.48 108.82 164.84 81.99 140.42 93.37 116.01 104.75"/><polygon class="cls-19" points="164.84 81.99 142.78 66.54 120.72 51.09 118.36 77.92 116.01 104.75 140.42 93.37 164.84 81.99"/></g></svg>