<svg id="Layer_1" data-name="Layer 1" xmlns="http://www.w3.org/2000/svg" viewBox="0 0 279.68 403.67"><defs><style>.cls-1{fill:#0d78d1;}.cls-1,.cls-10,.cls-11,.cls-12,.cls-13,.cls-14,.cls-15,.cls-16,.cls-17,.cls-2,.cls-3,.cls-4,.cls-5,.cls-6,.cls-7,.cls-8,.cls-9{fill-rule:evenodd;}.cls-2{fill:#3838a8;}.cls-3{fill:#03a8f5;}.cls-4{fill:#0a5ebd;}.cls-5{fill:#693bb8;}.cls-6{fill:#9c29b0;}.cls-7{fill:#0acfe0;}.cls-8{fill:#26a8c7;}.cls-9{fill:#1fbf91;}.cls-10{fill:#99cc30;}.cls-11{fill:#f90;}.cls-12{fill:#4db04f;}.cls-13{fill:#ffc208;}.cls-14{fill:#ff7d1a;}.cls-15{fill:#b81c57;}.cls-16{fill:#2470f0;}.cls-17{fill:#0d548f;}</style></defs><title>blot</title><polygon class="cls-1" points="0 242.2 34.96 262.39 69.92 282.57 69.92 242.2 69.92 201.84 34.96 222.02 0 242.2"/><polygon class="cls-2" points="0 322.94 34.96 302.75 69.92 282.57 69.92 322.94 69.92 363.31 34.96 343.12 0 322.94"/><polygon class="cls-3" points="69.92 201.84 34.96 181.65 0 161.47 0 201.84 0 242.2 34.96 222.02 69.92 201.84"/><polygon class="cls-4" points="69.92 282.57 34.96 262.39 0 242.2 0 282.57 0 322.94 34.96 302.75 69.92 282.57"/><polygon class="cls-5" points="139.84 322.94 104.88 343.12 69.92 363.31 69.92 322.94 69.92 282.57 104.88 302.75 139.84 322.94"/><polygon class="cls-6" points="69.92 363.31 104.88 383.49 139.84 403.67 139.84 363.31 139.84 322.94 104.88 343.12 69.92 363.31"/><polygon class="cls-7" points="139.84 161.47 174.8 141.29 209.76 121.1 209.76 161.47 209.76 201.84 174.8 181.65 139.84 161.47"/><polygon class="cls-8" points="209.76 121.1 174.8 141.28 139.84 161.47 139.84 121.1 139.84 80.73 174.8 100.92 209.76 121.1"/><polygon class="cls-9" points="279.68 161.47 244.72 141.29 209.76 121.1 209.76 161.47 209.76 201.84 244.72 181.65 279.68 161.47"/><polygon class="cls-10" points="279.68 242.2 244.72 262.39 209.76 282.57 209.76 242.2 209.76 201.84 244.72 222.02 279.68 242.2"/><polygon class="cls-11" points="279.68 322.94 244.72 302.75 209.76 282.57 209.76 322.94 209.76 363.31 244.72 343.12 279.68 322.94"/><polygon class="cls-12" points="209.76 201.84 244.72 181.65 279.68 161.47 279.68 201.84 279.68 242.2 244.72 222.02 209.76 201.84"/><polygon class="cls-13" points="209.76 282.57 244.72 262.39 279.68 242.2 279.68 282.57 279.68 322.94 244.72 302.75 209.76 282.57"/><polygon class="cls-14" points="139.84 322.94 174.8 343.12 209.76 363.31 209.76 322.94 209.76 282.57 174.8 302.75 139.84 322.94"/><polygon class="cls-15" points="209.76 363.31 174.8 383.49 139.84 403.67 139.84 363.31 139.84 322.94 174.8 343.12 209.76 363.31"/><polygon class="cls-16" points="0 161.47 34.96 141.29 69.92 121.1 69.92 161.47 69.92 201.84 34.96 181.65 0 161.47"/><polygon class="cls-1" points="69.92 121.1 34.96 100.92 0 80.73 0 121.1 0 161.47 34.96 141.28 69.92 121.1"/><polygon class="cls-4" points="0 80.73 34.96 100.92 69.92 121.1 69.92 80.73 69.92 40.37 34.96 60.55 0 80.73"/><polygon class="cls-17" points="69.92 40.37 34.96 20.18 0 0 0 40.37 0 80.73 34.96 60.55 69.92 40.37"/></svg>